<svg id="Complete_Logo" data-name="Complete Logo" xmlns="http://www.w3.org/2000/svg" viewBox="0 0 263.54 94.46"><title>Alchemy Code Lab Logo</title><g id="Full_Lockup" data-name="Full Lockup"><g id="Alchemy_name" data-name="Alchemy name"><path d="M125.51,48.57h-3.05v-1h0a3,3,0,0,1-2.61,1.23,4.6,4.6,0,0,1,0-9.18,3.51,3.51,0,0,1,2.66,1.14v-.84h3.05Zm-6.86-4.32a2,2,0,0,0,3.93,0,2,2,0,0,0-3.93,0Z" transform="translate(-4.96 -2.95)"/><path d="M130.6,48.59h-3.05l.06-13.93h3.05Z" transform="translate(-4.96 -2.95)"/><path d="M138.84,42.81a2.7,2.7,0,0,0-1.57-.61,2.07,2.07,0,0,0-2.11,2.09,2,2,0,0,0,2.14,2.12,2.34,2.34,0,0,0,1.53-.58v2.58a4.79,4.79,0,0,1-2.15.48A4.54,4.54,0,0,1,132,44.38a4.61,4.61,0,0,1,4.84-4.66,4.17,4.17,0,0,1,2,.51Z" transform="translate(-4.96 -2.95)"/><path d="M143.83,34.71l0,6.41h0a3.18,3.18,0,0,1,2.76-1.37c2.18,0,3.23,1.46,3.22,3.64l0,5.27h-3.05l0-4.41c0-1-.14-2-1.37-2.05s-1.6,1-1.6,2l0,4.41h-3.05l.06-13.93Z" transform="translate(-4.96 -2.95)"/><path d="M160.67,44.92l-6.43,0a1.71,1.71,0,0,0,1.91,1.92,1.53,1.53,0,0,0,1.46-.78h2.94c-.49,2-2.43,2.94-4.39,2.94-2.85,0-5-1.63-5-4.6s2-4.59,4.78-4.58c3,0,4.71,1.87,4.7,4.8Zm-2.83-1.77a1.83,1.83,0,0,0-3.54,0Z" transform="translate(-4.96 -2.95)"/><path d="M165.13,41.19h0a3.19,3.19,0,0,1,2.72-1.35,3.15,3.15,0,0,1,2.93,1.66,3.29,3.29,0,0,1,2.93-1.63c2.18,0,2.93,1.44,2.92,3.42l0,5.49h-3.05l0-4.11c0-.89,0-2.35-1.25-2.35s-1.46,1.32-1.47,2.34l0,4.11h-3.05l0-4.11c0-1,0-2.42-1.35-2.42s-1.36,1.46-1.37,2.41l0,4.11H162l0-8.61h3.05Z" transform="translate(-4.96 -2.95)"/><path d="M177.42,40.17h3.52l2.28,4.42,2.27-4.41H189L182,53.09h-3.42l3-5.46Z" transform="translate(-4.96 -2.95)"/><path d="M201.61,43.07a2.7,2.7,0,0,0-1.57-.61,2.07,2.07,0,0,0-2.11,2.09,2,2,0,0,0,2.14,2.12,2.34,2.34,0,0,0,1.53-.58v2.58a4.79,4.79,0,0,1-2.15.48,4.54,4.54,0,0,1-4.66-4.52A4.61,4.61,0,0,1,199.61,40a4.17,4.17,0,0,1,2,.51Z" transform="translate(-4.96 -2.95)"/><path d="M213.24,44.62c0,2.92-2.44,4.57-5.21,4.56s-5.18-1.67-5.17-4.6S205.3,40,208.07,40,213.25,41.69,213.24,44.62Zm-7.15,0a2,2,0,0,0,3.93,0,2,2,0,0,0-3.93,0Z" transform="translate(-4.96 -2.95)"/><path d="M221.08,48h0a3,3,0,0,1-2.61,1.23,4.6,4.6,0,0,1,0-9.18,3.51,3.51,0,0,1,2.66,1.14l0-6.16h3.05L224.13,49h-3.05Zm-3.81-3.36a2,2,0,0,0,3.93,0,2,2,0,0,0-3.93,0Z" transform="translate(-4.96 -2.95)"/><path d="M234.9,45.21l-6.43,0a1.71,1.71,0,0,0,1.91,1.92,1.53,1.53,0,0,0,1.46-.78h2.94c-.49,2-2.43,2.94-4.39,2.94-2.85,0-5-1.63-5-4.6s2-4.59,4.78-4.58c3,0,4.71,1.87,4.7,4.8Zm-2.83-1.77a1.83,1.83,0,0,0-3.54,0Z" transform="translate(-4.96 -2.95)"/><path d="M245.09,49H242l.06-13.93h3.05Z" transform="translate(-4.96 -2.95)"/><path d="M256.52,49.09h-3.05v-1h0a3,3,0,0,1-2.61,1.23,4.6,4.6,0,0,1,0-9.18,3.51,3.51,0,0,1,2.66,1.14v-.84h3.05Zm-6.86-4.32a2,2,0,0,0,3.93,0,2,2,0,0,0-3.93,0Z" transform="translate(-4.96 -2.95)"/><path d="M258.5,35.17h3.05l0,6.16a3.54,3.54,0,0,1,2.67-1.11,4.6,4.6,0,0,1-.07,9.18,3,3,0,0,1-2.6-1.25h0v1h-3.05Zm2.91,9.65a2,2,0,0,0,3.93,0,2,2,0,0,0-3.93,0Z" transform="translate(-4.96 -2.95)"/></g><g id="Tagline"><path d="M150.26,65.51a5.4,5.4,0,0,0,1.32-.35l-.11.46a2.34,2.34,0,0,1-1.42.58c-.63,0-.94-.44-.88-1.14h0A2.89,2.89,0,0,1,147,66.24c-1,0-1.86-.62-1.86-2.11,0-2.36,1.8-4.68,3.81-4.67a2.08,2.08,0,0,1,1.23.3l.42-2.38-1-.2.09-.49,2.14-.28.13.06Zm-.95-1.22.65-3.57a1.36,1.36,0,0,0-1.15-.57c-1.34,0-2.5,2-2.51,4,0,.92.32,1.29,1,1.3A2.81,2.81,0,0,0,149.32,64.29Z" transform="translate(-4.96 -2.95)"/><path d="M152.59,63.93c0-2.28,1.71-4.45,3.84-4.44,1.09,0,1.68.54,1.68,1.39,0,1.87-2.51,2.33-4.3,2.46a4,4,0,0,0,0,.55c0,1.16.51,1.56,1.36,1.57a3.86,3.86,0,0,0,2.1-.75l-.14.62a3.44,3.44,0,0,1-2.43.94A2.05,2.05,0,0,1,152.59,63.93Zm1.32-1.24c1.47-.12,3-.38,3-1.79,0-.45-.2-.72-.58-.72C155.2,60.17,154.26,61.25,153.91,62.69Z" transform="translate(-4.96 -2.95)"/><path d="M160.49,66.15a54.86,54.86,0,0,0-.46-5.69c-.61.12-1.23.31-1.23.31l.1-.46a2.78,2.78,0,0,1,1.63-.8c.24,0,.59.11.68.77a31.6,31.6,0,0,1,.27,3.48,14.65,14.65,0,0,1-.06,1.55h.06c.34-.62.6-1,.87-1.44a10.93,10.93,0,0,0,1.45-3.34h-.55l.14-.72a.94.94,0,0,1,.66-.3.76.76,0,0,1,.84.83c0,.93-1.7,3.7-3.44,5.81Z" transform="translate(-4.96 -2.95)"/><path d="M165.51,64c0-2.28,1.71-4.45,3.84-4.44,1.09,0,1.68.54,1.68,1.39,0,1.87-2.51,2.33-4.3,2.46a4,4,0,0,0,0,.55c0,1.16.51,1.56,1.36,1.57a3.86,3.86,0,0,0,2.1-.75l-.14.62a3.45,3.45,0,0,1-2.43.94A2.05,2.05,0,0,1,165.51,64Zm1.32-1.24c1.47-.12,3-.38,3-1.8,0-.45-.2-.72-.58-.72C168.13,60.23,167.19,61.31,166.84,62.75Z" transform="translate(-4.96 -2.95)"/><path d="M172.9,65.6a7.92,7.92,0,0,0,1.49-.37l-.11.46a3.26,3.26,0,0,1-1.76.6.68.68,0,0,1-.75-.76,1.64,1.64,0,0,1,0-.4l1.67-7.66-1-.2.09-.49,2.13-.28.12.07Z" transform="translate(-4.96 -2.95)"/><path d="M175.49,63.77c0-2.05,1.35-4.18,3.46-4.17a2.33,2.33,0,0,1,2.43,2.6c0,2.06-1.35,4.18-3.46,4.17A2.36,2.36,0,0,1,175.49,63.77Zm4.69-1.71c0-1.22-.43-1.77-1.27-1.78-1.31,0-2.24,1.71-2.25,3.61,0,1.24.42,1.77,1.32,1.78C179.45,65.68,180.17,63.91,180.18,62.06Z" transform="translate(-4.96 -2.95)"/><path d="M181.24,68.45l1-.18,1.4-7.76a8.7,8.7,0,0,0-1.37.35l.11-.46a2.72,2.72,0,0,1,1.71-.8c.44,0,.67.08.67.6a4,4,0,0,1-.06.59v.07h.06A3,3,0,0,1,187,59.62c1,0,1.71.68,1.7,2.24,0,2.33-1.51,4.55-3.74,4.54a2.24,2.24,0,0,1-1.19-.3l-.39,2.16,1.07.21-.06.43h-3.25Zm6.29-6.5c0-1.06-.35-1.43-1-1.43a3,3,0,0,0-1.92,1L184,65.21a1.23,1.23,0,0,0,1.16.52C186.76,65.73,187.52,63.57,187.53,61.95Z" transform="translate(-4.96 -2.95)"/><path d="M191.25,65.68a5.43,5.43,0,0,0,1.33-.35l-.11.46a2.66,2.66,0,0,1-1.58.58.68.68,0,0,1-.75-.76,1.65,1.65,0,0,1,.05-.4l1-4.67a9,9,0,0,0-1.42.36l.11-.46a2.83,2.83,0,0,1,1.76-.8c.44,0,.72.16.72.7a2.67,2.67,0,0,1-.08.56Zm.34-8a.79.79,0,0,1,.8-.8.73.73,0,0,1,.74.71.8.8,0,0,1-.8.79A.74.74,0,0,1,191.59,57.7Z" transform="translate(-4.96 -2.95)"/><path d="M199,65.71a5.38,5.38,0,0,0,1.33-.35l-.11.46a2.66,2.66,0,0,1-1.58.58.66.66,0,0,1-.75-.75,1.81,1.81,0,0,1,.05-.41l.76-3.52a2.79,2.79,0,0,0,.08-.56c0-.44-.19-.59-.47-.59A3.56,3.56,0,0,0,196,61.92l-.95,4.36h-1.17l1.24-5.73a9,9,0,0,0-1.42.36l.11-.46a2.83,2.83,0,0,1,1.76-.8c.43,0,.67.14.67.64a2.64,2.64,0,0,1-.09.62l0,.16h.07a3.64,3.64,0,0,1,2.62-1.4c.7,0,1.17.31,1.17,1.13a3,3,0,0,1-.08.62Z" transform="translate(-4.96 -2.95)"/><path d="M200.12,67.47c0-.92,1.06-1.47,2.28-1.85a.91.91,0,0,1-.44-.75,2,2,0,0,1,.68-1.24,1.81,1.81,0,0,1-.86-1.55,2.4,2.4,0,0,1,2.58-2.39,1.9,1.9,0,0,1,.88.21l2.16-.24-.19.87L206,60.46v0a1.7,1.7,0,0,1,.42,1.15A2.43,2.43,0,0,1,203.84,64a2.28,2.28,0,0,1-.78-.12,1.27,1.27,0,0,0-.26.62c0,.26.13.37.72.55l.64.21c1.24.41,2,.83,2,1.79,0,1.24-1,2.07-3.11,2.06S200.11,68.26,200.12,67.47ZM203,65.92c-1,.31-1.74.76-1.74,1.44s.43,1,1.83,1,2-.57,2-1.07-.56-.92-1.28-1.14L203.1,66Zm2.35-4.42c0-.7-.3-1.2-1-1.2-.94,0-1.46.79-1.46,2a.94.94,0,0,0,1,1.08C204.86,63.35,205.31,62.63,205.31,61.5Z" transform="translate(-4.96 -2.95)"/><path d="M212.17,65.7a5.62,5.62,0,0,0,1.82-.41l-.11.5a3.16,3.16,0,0,1-1.88.66.84.84,0,0,1-.92-.91,1.56,1.56,0,0,1,.05-.39l1-4.56h-1l.11-.51,1.07-.3.34-1.56h1.17l-.35,1.62H215l-.17.75h-1.6Z" transform="translate(-4.96 -2.95)"/><path d="M220.62,65.79a5.38,5.38,0,0,0,1.33-.35l-.11.46a2.66,2.66,0,0,1-1.58.58.66.66,0,0,1-.75-.75,1.81,1.81,0,0,1,.05-.41l.76-3.52a2.79,2.79,0,0,0,.08-.56c0-.44-.19-.59-.47-.59A3.56,3.56,0,0,0,217.64,62l-.95,4.36h-1.17l1.89-8.72-.93-.2.09-.49,2-.29.12.07-.87,4.32h.07a3.53,3.53,0,0,1,2.53-1.32c.7,0,1.17.31,1.17,1.13a3,3,0,0,1-.08.62Z" transform="translate(-4.96 -2.95)"/><path d="M223,64.22c0-2.28,1.71-4.45,3.84-4.44,1.09,0,1.68.54,1.68,1.39,0,1.87-2.51,2.33-4.3,2.46a4,4,0,0,0,0,.55c0,1.16.51,1.56,1.36,1.57a3.86,3.86,0,0,0,2.1-.75l-.14.62a3.45,3.45,0,0,1-2.43.94A2.05,2.05,0,0,1,223,64.22ZM224.3,63c1.47-.12,3-.38,3-1.79,0-.45-.2-.72-.58-.72C225.59,60.46,224.65,61.54,224.3,63Z" transform="translate(-4.96 -2.95)"/><path d="M232.78,60.17l.89-.28c.41-2.35,1.61-3.18,3.3-3.17.92,0,1.49.31,1.48.91a1,1,0,0,1-.23.6h-.89v-.74a1.17,1.17,0,0,0-.44-.09c-1.06,0-1.71.54-2,2.54h1.7l-.17.76h-1.66L233.82,66c-.31,1.85-1,2.77-2.5,2.76-.67,0-1.23-.31-1.23-.85a.83.83,0,0,1,.23-.54h.81v.7h.17c.85,0,1.21-.52,1.46-2.17l.79-5.28h-.88Z" transform="translate(-4.96 -2.95)"/><path d="M242.23,65.88a5.38,5.38,0,0,0,1.33-.35l-.11.46a2.49,2.49,0,0,1-1.51.58.66.66,0,0,1-.75-.73,1.91,1.91,0,0,1,.05-.43l0-.13h-.07c-.8.74-1.31,1.31-2.35,1.31a1.22,1.22,0,0,1-1.3-1.36,2.53,2.53,0,0,1,.06-.57l.85-3.91a8.28,8.28,0,0,0-1.36.35l.11-.46a2.83,2.83,0,0,1,1.76-.8c.43,0,.66.15.66.65a3.18,3.18,0,0,1-.08.61l-.76,3.49a3,3,0,0,0-.06.51c0,.4.17.63.56.64a3,3,0,0,0,2.08-1.24l1-4.52h1.17Z" transform="translate(-4.96 -2.95)"/><path d="M246.09,65.83a5.62,5.62,0,0,0,1.82-.41l-.11.5a3.17,3.17,0,0,1-1.88.66.84.84,0,0,1-.92-.91,1.56,1.56,0,0,1,.05-.39l1-4.56h-1l.11-.51,1.07-.3.34-1.56h1.17L247.37,60H249l-.17.75h-1.6Z" transform="translate(-4.96 -2.95)"/><path d="M254.66,65.93a5.38,5.38,0,0,0,1.33-.35l-.11.46a2.49,2.49,0,0,1-1.51.58.66.66,0,0,1-.75-.73,1.91,1.91,0,0,1,.05-.43l0-.13h-.07c-.8.74-1.31,1.31-2.35,1.31a1.22,1.22,0,0,1-1.3-1.36,2.53,2.53,0,0,1,.06-.57l.85-3.91a8.35,8.35,0,0,0-1.36.35l.11-.46a2.83,2.83,0,0,1,1.76-.8c.43,0,.66.15.66.65a3.18,3.18,0,0,1-.08.61l-.76,3.49a2.9,2.9,0,0,0-.06.51c0,.4.17.64.56.64a3,3,0,0,0,2.08-1.24l1-4.52h1.17Z" transform="translate(-4.96 -2.95)"/><path d="M260.95,61.45v-.65a5.6,5.6,0,0,0-1.58,1.43l-.93,4.3h-1.17l1.23-5.72a7.92,7.92,0,0,0-1.4.35l.11-.46a2.83,2.83,0,0,1,1.76-.8c.43,0,.67.15.67.64a2.46,2.46,0,0,1-.09.6l-.06.23h.07c.76-1.06,1.36-1.45,1.91-1.44a.67.67,0,0,1,.69.69,1.24,1.24,0,0,1-.39.84Z" transform="translate(-4.96 -2.95)"/><path d="M262.39,64.38c0-2.28,1.71-4.45,3.84-4.44,1.09,0,1.68.54,1.68,1.39,0,1.87-2.51,2.33-4.3,2.46a4,4,0,0,0,0,.55c0,1.16.51,1.56,1.36,1.57a3.86,3.86,0,0,0,2.1-.75l-.14.62a3.45,3.45,0,0,1-2.43.94A2.05,2.05,0,0,1,262.39,64.38Zm1.32-1.24c1.47-.12,3-.38,3-1.8,0-.45-.2-.72-.58-.72C265,60.61,264.06,61.7,263.71,63.14Z" transform="translate(-4.96 -2.95)"/></g><path id="Logo_Mark" data-name="Logo Mark" d="M11.65,2.95A6.66,6.66,0,1,1,5,9.58,6.66,6.66,0,0,1,11.65,2.95Zm96,93a4.88,4.88,0,1,0-6.9,0A4.88,4.88,0,0,0,107.7,96ZM125.17,26.1a3.7,3.7,0,1,0-5.23,0A3.7,3.7,0,0,0,125.17,26.1Zm-3.42,40.8-4,3.54a37.9,37.9,0,0,1-24.94,9.35h-.15a38,38,0,0,1-24.8-9.34v3l-14.89-.06,0-7.82a28.52,28.52,0,0,1-15,4.31h-.11a28.33,28.33,0,0,1-9.21-55.08A28.37,28.37,0,0,1,38,13.25h.11a28.07,28.07,0,0,1,12.17,2.82,28.8,28.8,0,0,1,2.89,1.6l0-7.59L68,10.15V13A37.92,37.92,0,0,1,92.82,3.85H93A37.83,37.83,0,0,1,112,9l4.64,2.72-7.54,12.84-4.64-2.72A22.92,22.92,0,0,0,92.9,18.74h-.09a23.17,23.17,0,0,0-17.22,7.63A23.09,23.09,0,0,0,92.67,64.9h.1a23,23,0,0,0,15.15-5.68L112,55.68ZM42.36,54.28A13.44,13.44,0,0,0,38,28.15L38,27.24h0v.91a13.48,13.48,0,0,0-12.12,7.61A13.46,13.46,0,0,0,37.87,55h0A13.5,13.5,0,0,0,42.36,54.28Z" transform="translate(-4.96 -2.95)"/></g></svg>